<mxfile host="app.diagrams.net" agent="Mozilla/5.0 (Windows NT 10.0; Win64; x64) AppleWebKit/537.36 (KHTML, like Gecko) Chrome/139.0.0.0 Safari/537.36" version="28.2.0">
  <diagram name="Page-1" id="ja6Jv6K6E00j63stfY1Q">
    <mxGraphModel dx="1854" dy="1814" grid="1" gridSize="10" guides="1" tooltips="1" connect="1" arrows="1" fold="1" page="0" pageScale="1" pageWidth="827" pageHeight="1169" math="0" shadow="0">
      <root>
        <mxCell id="0" />
        <mxCell id="1" parent="0" />
        <mxCell id="EDjaMZPSDxmGKB74mhdC-24" value="US-002: Flag Partial Payments" style="swimlane;childLayout=stackLayout;resizeParent=1;resizeParentMax=0;startSize=20;horizontal=0;horizontalStack=1;" vertex="1" parent="1">
          <mxGeometry x="-940" y="-900" width="642.5" height="640" as="geometry" />
        </mxCell>
        <mxCell id="EDjaMZPSDxmGKB74mhdC-25" value="System / IT " style="swimlane;startSize=20;" vertex="1" parent="EDjaMZPSDxmGKB74mhdC-24">
          <mxGeometry x="20" width="402.5" height="640" as="geometry">
            <mxRectangle x="20" width="32" height="560" as="alternateBounds" />
          </mxGeometry>
        </mxCell>
        <mxCell id="EDjaMZPSDxmGKB74mhdC-9" style="edgeStyle=none;curved=1;rounded=0;orthogonalLoop=1;jettySize=auto;html=1;exitX=0.5;exitY=1;exitDx=0;exitDy=0;entryX=0.5;entryY=0;entryDx=0;entryDy=0;fontSize=12;startSize=8;endSize=8;" edge="1" parent="EDjaMZPSDxmGKB74mhdC-25" source="EDjaMZPSDxmGKB74mhdC-2" target="EDjaMZPSDxmGKB74mhdC-3">
          <mxGeometry relative="1" as="geometry" />
        </mxCell>
        <mxCell id="EDjaMZPSDxmGKB74mhdC-2" value="&lt;div&gt;Receive partial / unmatched&lt;span style=&quot;background-color: transparent; color: light-dark(rgb(0, 0, 0), rgb(255, 255, 255));&quot;&gt;&amp;nbsp;invoices from US-001&lt;/span&gt;&lt;/div&gt;" style="rounded=0;whiteSpace=wrap;html=1;" vertex="1" parent="EDjaMZPSDxmGKB74mhdC-25">
          <mxGeometry x="35" y="40" width="120" height="80" as="geometry" />
        </mxCell>
        <mxCell id="EDjaMZPSDxmGKB74mhdC-10" style="edgeStyle=none;curved=1;rounded=0;orthogonalLoop=1;jettySize=auto;html=1;exitX=0.5;exitY=1;exitDx=0;exitDy=0;entryX=0.5;entryY=0;entryDx=0;entryDy=0;fontSize=12;startSize=8;endSize=8;" edge="1" parent="EDjaMZPSDxmGKB74mhdC-25" source="EDjaMZPSDxmGKB74mhdC-3" target="EDjaMZPSDxmGKB74mhdC-4">
          <mxGeometry relative="1" as="geometry" />
        </mxCell>
        <mxCell id="EDjaMZPSDxmGKB74mhdC-3" value="Check if payment &amp;lt; invoice" style="rounded=0;whiteSpace=wrap;html=1;" vertex="1" parent="EDjaMZPSDxmGKB74mhdC-25">
          <mxGeometry x="35" y="150" width="120" height="60" as="geometry" />
        </mxCell>
        <mxCell id="EDjaMZPSDxmGKB74mhdC-4" value="Is payment partial?" style="rhombus;whiteSpace=wrap;html=1;" vertex="1" parent="EDjaMZPSDxmGKB74mhdC-25">
          <mxGeometry x="55" y="250" width="80" height="80" as="geometry" />
        </mxCell>
        <mxCell id="EDjaMZPSDxmGKB74mhdC-6" value="Route to investigation /&amp;nbsp;closure by Billing Officer" style="rounded=0;whiteSpace=wrap;html=1;" vertex="1" parent="EDjaMZPSDxmGKB74mhdC-25">
          <mxGeometry x="195" y="260" width="125" height="60" as="geometry" />
        </mxCell>
        <mxCell id="EDjaMZPSDxmGKB74mhdC-11" value="" style="endArrow=classic;html=1;rounded=0;fontSize=12;startSize=8;endSize=8;curved=1;entryX=0;entryY=0.5;entryDx=0;entryDy=0;exitX=1;exitY=0.5;exitDx=0;exitDy=0;" edge="1" parent="EDjaMZPSDxmGKB74mhdC-25" source="EDjaMZPSDxmGKB74mhdC-4" target="EDjaMZPSDxmGKB74mhdC-6">
          <mxGeometry relative="1" as="geometry">
            <mxPoint x="135" y="359.5" as="sourcePoint" />
            <mxPoint x="205" y="360" as="targetPoint" />
          </mxGeometry>
        </mxCell>
        <mxCell id="EDjaMZPSDxmGKB74mhdC-12" value="No" style="edgeLabel;resizable=0;html=1;;align=center;verticalAlign=middle;" connectable="0" vertex="1" parent="EDjaMZPSDxmGKB74mhdC-11">
          <mxGeometry relative="1" as="geometry" />
        </mxCell>
        <mxCell id="EDjaMZPSDxmGKB74mhdC-16" value="" style="endArrow=classic;html=1;rounded=0;fontSize=12;startSize=8;endSize=8;curved=1;entryX=0.5;entryY=0;entryDx=0;entryDy=0;exitX=0.5;exitY=1;exitDx=0;exitDy=0;" edge="1" parent="EDjaMZPSDxmGKB74mhdC-25" source="EDjaMZPSDxmGKB74mhdC-4" target="EDjaMZPSDxmGKB74mhdC-36">
          <mxGeometry relative="1" as="geometry">
            <mxPoint x="95" y="400" as="sourcePoint" />
            <mxPoint x="95" y="450" as="targetPoint" />
          </mxGeometry>
        </mxCell>
        <mxCell id="EDjaMZPSDxmGKB74mhdC-17" value="Yes" style="edgeLabel;resizable=0;html=1;;align=center;verticalAlign=middle;" connectable="0" vertex="1" parent="EDjaMZPSDxmGKB74mhdC-16">
          <mxGeometry relative="1" as="geometry" />
        </mxCell>
        <mxCell id="EDjaMZPSDxmGKB74mhdC-39" style="edgeStyle=none;curved=1;rounded=0;orthogonalLoop=1;jettySize=auto;html=1;exitX=0.5;exitY=1;exitDx=0;exitDy=0;entryX=0.5;entryY=0;entryDx=0;entryDy=0;fontSize=12;startSize=8;endSize=8;" edge="1" parent="EDjaMZPSDxmGKB74mhdC-25" source="EDjaMZPSDxmGKB74mhdC-36" target="EDjaMZPSDxmGKB74mhdC-37">
          <mxGeometry relative="1" as="geometry" />
        </mxCell>
        <mxCell id="EDjaMZPSDxmGKB74mhdC-36" value="Flag invoice as exception" style="rounded=0;whiteSpace=wrap;html=1;" vertex="1" parent="EDjaMZPSDxmGKB74mhdC-25">
          <mxGeometry x="35" y="380" width="120" height="60" as="geometry" />
        </mxCell>
        <mxCell id="EDjaMZPSDxmGKB74mhdC-40" style="edgeStyle=none;curved=1;rounded=0;orthogonalLoop=1;jettySize=auto;html=1;exitX=0.5;exitY=1;exitDx=0;exitDy=0;entryX=0.5;entryY=0;entryDx=0;entryDy=0;fontSize=12;startSize=8;endSize=8;" edge="1" parent="EDjaMZPSDxmGKB74mhdC-25" source="EDjaMZPSDxmGKB74mhdC-37" target="EDjaMZPSDxmGKB74mhdC-38">
          <mxGeometry relative="1" as="geometry" />
        </mxCell>
        <mxCell id="EDjaMZPSDxmGKB74mhdC-37" value="Update exception dashboard" style="rounded=0;whiteSpace=wrap;html=1;" vertex="1" parent="EDjaMZPSDxmGKB74mhdC-25">
          <mxGeometry x="35" y="470" width="120" height="60" as="geometry" />
        </mxCell>
        <mxCell id="EDjaMZPSDxmGKB74mhdC-38" value="Send notification" style="rounded=0;whiteSpace=wrap;html=1;" vertex="1" parent="EDjaMZPSDxmGKB74mhdC-25">
          <mxGeometry x="35" y="560" width="120" height="60" as="geometry" />
        </mxCell>
        <mxCell id="EDjaMZPSDxmGKB74mhdC-26" value="Billing Officer" style="swimlane;startSize=20;" vertex="1" parent="EDjaMZPSDxmGKB74mhdC-24">
          <mxGeometry x="422.5" width="220" height="640" as="geometry" />
        </mxCell>
        <mxCell id="EDjaMZPSDxmGKB74mhdC-29" value="Review flagged invoices" style="rounded=0;whiteSpace=wrap;html=1;" vertex="1" parent="EDjaMZPSDxmGKB74mhdC-26">
          <mxGeometry x="37.5" y="560" width="120" height="60" as="geometry" />
        </mxCell>
      </root>
    </mxGraphModel>
  </diagram>
</mxfile>
